# xmcd
#
# Track frame offsets:
#   150
#   12145
#   31666
#   44297
#   58699
#   71453
#   83321
#   95530
#   111483
#   127979
#   143660
#   158506
#   177923
#   189993
#   201873
#   217848
#   232116
#   244298
#   262759
#   278265
#
# Disc length: 3929 seconds
#
# Revision: 0
# Processed by: cddbd v1.5PL3 Copyright (c) Steve Scherf et al.
# Submitted via: Media_Universe 3.0
#
DISCID=fc0f5714
DTITLE=Kenny Chesney - All I Need To Know and Me And You
DYEAR=1900
DGENRE=Country
TTITLE0=Fall In Love
TTITLE1=Grandpa Told Me So
TTITLE2=Bigger The Fool (the harder the fall)
TTITLE3=All I Need To Know
TTITLE4=Honey Would You Stand By Me
TTITLE5=Someone Elses Hog
TTITLE6=Between Midnight And Daylight
TTITLE7=Paris Tennessee
TTITLE8=The Tin Man
TTITLE9=Back In My Arms Again
TTITLE10=Ain't That Love
TTITLE11=Back Where I Come From
TTITLE12=Turn For The Worse
TTITLE13=Another Friday Night
TTITLE14=No Small Miracle
TTITLE15=My Poor Old Heart
TTITLE16=I Finally Found Someone'
TTITLE17=What I Need To Do
TTITLE18=Shé Got It All
TTITLE19=Me And You
EXTD=
EXTT0=
EXTT1=
EXTT2=
EXTT3=
EXTT4=
EXTT5=
EXTT6=
EXTT7=
EXTT8=
EXTT9=
EXTT10=
EXTT11=
EXTT12=
EXTT13=
EXTT14=
EXTT15=
EXTT16=
EXTT17=
EXTT18=
EXTT19=
PLAYORDER=
